# xmcd
#
# Track frame offsets: 
#        150
#        13738
#        36579
#        54928
#        80073
#        111583
#        136462
#        164020
#        206435
#        219294
#        243857
#        263733
#        298326
#
# Disc length: 4171 seconds
#
# Revision: 0
# Processed by: cddbd v1.5.2PL0 Copyright (c) Steve Scherf et al.
# Submitted via: ExactAudioCopy v0.99pb4
#
DISCID=c710490d
DTITLE=Anders F Ronnblom - Live Fran Den Mixade Zonen - CD 2
DYEAR=2006
DGENRE=Alternative
TTITLE0=Din Barndom Skall Aldrig Do
TTITLE1=Ramlosa Kvarn
TTITLE2=Dromde
TTITLE3=Mer An Amerika
TTITLE4=Jesus, Marx Och Billy The Kid
TTITLE5=Skratta Tills Taget Gar
TTITLE6=Lagom Hart
TTITLE7=Osarbar
TTITLE8=Inga Granser
TTITLE9=Kungarike
TTITLE10=Vit Flagg
TTITLE11=Det Ar Inte Snon Som Faller
TTITLE12=Skordevisa
EXTD=
EXTT0=
EXTT1=
EXTT2=
EXTT3=
EXTT4=
EXTT5=
EXTT6=
EXTT7=
EXTT8=
EXTT9=
EXTT10=
EXTT11=
EXTT12=
PLAYORDER=
